<?xml version="1.0" encoding="UTF-8" standalone="yes"?>
<svg xmlns="http://www.w3.org/2000/svg" viewBox="0 0 50 50" width="50" height="50" fill="#000000">
  <path style="line-height:normal;text-indent:0;text-align:start;text-decoration-line:none;text-decoration-style:solid;text-decoration-color:#000000;text-transform:none;block-progression:tb;isolation:auto;mix-blend-mode:normal" d="M 32.558594 3.9980469 C 27.774594 3.9980469 23.519734 6.7273125 21.427734 10.820312 C 22.025734 11.153313 22.591328 11.514109 23.111328 11.912109 C 24.832328 8.3701094 28.467594 5.9960938 32.558594 5.9960938 C 35.560594 5.9960938 38.266641 7.269875 40.181641 9.296875 C 40.878641 8.925875 41.524375 8.6511719 42.109375 8.4511719 C 39.814375 5.7321719 36.386594 3.9980469 32.558594 3.9980469 z M 45.041016 9.8984375 C 45.041016 9.8984375 44.305845 9.880388 43.289062 10.164062 C 42.426285 10.404772 41.202965 11.045104 39.929688 11.892578 C 38.634428 11.111616 37.435244 10.516519 36.628906 10.261719 C 35.688083 9.9644207 35.044922 9.9257812 35.044922 9.9257812 A 1.0001 1.0001 0 1 0 34.957031 11.923828 C 34.957031 11.923828 35.261667 11.926028 36.027344 12.167969 C 36.793021 12.409921 37.940445 12.888463 39.382812 13.835938 A 1.0001 1.0001 0 0 0 40.53125 13.798828 C 41.888478 12.778812 43.038407 12.310169 43.828125 12.089844 C 44.617843 11.869518 44.960937 11.896484 44.960938 11.896484 A 1.0001 1.0001 0 1 0 45.041016 9.8984375 z M 14.283203 11 C 11.166553 10.97783 7.6641233 11.741015 4.3984375 14.201172 A 1.0001 1.0001 0 0 0 4.9511719 15.998047 C 11.672702 16.320286 16.844906 18.345222 20.419922 20.357422 C 19.356799 20.149379 18.214654 20.011077 17.009766 20 C 12.53025 19.958365 6.683071 21.93353 4.0683594 28.636719 A 1.0001 1.0001 0 0 0 5.3066406 29.951172 C 10.796148 28.177417 16.567541 26.915054 20.861328 26.089844 C 16.371387 29.155402 10.671504 34.881149 9.0136719 44.835938 A 1.0001 1.0001 0 1 0 10.986328 45.164062 C 13.168432 32.061184 22.513948 26.960822 25.941406 25.496094 C 25.946047 25.792122 25.949246 25.84684 25.951172 26.443359 C 15.58097 32.369621 15.001953 44.951172 15.001953 44.951172 A 1.0001 1.0001 0 1 0 16.998047 45.048828 C 16.998047 45.048828 17.548858 34.378097 25.921875 28.808594 C 25.879461 32.643603 25.690135 38.503659 24.878906 44.244141 A 1.0001 1.0001 0 0 0 26.396484 45.234375 C 29.646964 43.221185 31.455384 40.819833 32.210938 38.365234 C 32.946188 35.976594 32.687448 33.600561 32.042969 31.521484 C 33.994005 34.516883 35.954574 38.440837 37.023438 43.21875 A 1.0001 1.0001 0 0 0 38.890625 43.455078 C 40.496748 40.320121 41 37.065894 41 34 C 41 31.473689 40.072045 29.430304 38.714844 27.908203 C 37.357643 26.386102 35.602093 25.358638 33.884766 24.642578 C 31.400119 23.606576 28.980757 23.219698 27.810547 23.080078 C 27.533918 21.976738 26.866426 19.766534 25.458984 17.5 C 23.490111 14.329341 19.953945 11.040689 14.283203 11 z M 14.269531 13 C 19.19079 13.03531 22.014639 15.7463 23.759766 18.556641 C 24.314601 19.450144 24.564135 20.210583 24.892578 21.013672 C 21.871121 18.720843 16.432288 15.49091 8.3789062 14.386719 C 10.372544 13.507449 12.368163 12.986474 14.269531 13 z M 44.791016 13.923828 C 44.473016 13.975828 43.800719 14.140437 42.886719 14.648438 C 42.993719 15.249437 43.060547 15.864094 43.060547 16.496094 C 43.060547 19.967094 41.320687 23.173375 38.554688 25.109375 C 39.090688 25.538375 39.585969 26.002047 40.042969 26.498047 C 43.133969 24.173047 45.060547 20.482094 45.060547 16.496094 C 45.060547 15.613094 44.965016 14.754828 44.791016 13.923828 z M 16.990234 22 C 19.831502 22.02612 22.181379 22.784293 23.896484 23.529297 C 20.8183 24.025605 14.657103 25.14785 7.1074219 27.371094 C 9.6393113 23.26683 13.61224 21.968603 16.990234 22 z M 29.890625 25.556641 C 30.896475 25.781362 31.949635 26.002271 33.115234 26.488281 C 34.647907 27.127347 36.142357 28.026726 37.222656 29.238281 C 38.302955 30.449837 39 31.946811 39 34 C 39 35.906427 38.653044 37.828254 38.087891 39.734375 C 35.896254 32.865371 32.267314 28.138319 29.890625 25.556641 z M 27.916016 27.701172 C 28.683784 28.855866 29.545349 30.281643 30.087891 31.962891 C 30.685122 33.813614 30.901993 35.817817 30.298828 37.777344 C 29.848846 39.239219 28.695274 40.691085 27.046875 42.099609 C 27.762504 35.686483 27.930534 30.602973 27.916016 27.701172 z" font-weight="400" font-family="sans-serif" white-space="normal" overflow="visible"/>
</svg>
