<?xml version="1.0" encoding="utf-8"?>
<!-- Generator: Adobe Illustrator 23.0.1, SVG Export Plug-In . SVG Version: 6.00 Build 0)  -->
<svg version="1.1" id="Layer_1" xmlns="http://www.w3.org/2000/svg" xmlns:xlink="http://www.w3.org/1999/xlink" x="0px" y="0px"
	 viewBox="0 0 114.3 48" style="enable-background:new 0 0 114.3 48;" xml:space="preserve">
<style type="text/css">
	.st0{fill:#D81B60;}
	.st1{fill:#AD1457;}
	.st2{fill:#4CAF50;}
	.st3{fill:#388E3C;}
	.st4{font-family:'Arial-Black';}
	.st5{font-size:18px;}
</style>
<path class="st0" d="M22.7,20c-1.7,0-3,0.6-4,0.6s-2.5-0.6-4-0.6c-5.5,0-9,4-9,9.1s4,9.9,8.4,9.9c-0.2,0-0.3,0-0.4,0c4,0,5,4,5,4
	s1-4,5.5-4c-0.1,0-0.3,0-0.4,0c3.9,0,7.8-4.8,7.8-9.9S28.5,20,22.7,20z"/>
<path class="st1" d="M15.5,21.9c0,1.7,1.4,3.2,3.2,3.2s3.2-1.4,3.2-3.2c0-0.7-0.2-1.3-0.6-1.8c-1,0.2-1.9,0.4-2.6,0.4
	s-1.6-0.3-2.6-0.4C15.8,20.6,15.5,21.3,15.5,21.9z M14.8,28h-3.1c-0.6,0-1-0.4-1-1s0.4-1,1-1h3.1c0.6,0,1,0.4,1,1S15.3,28,14.8,28z
	 M26.7,29h-4c-0.6,0-1-0.4-1-1s0.4-1,1-1h4c0.6,0,1,0.4,1,1S27.3,29,26.7,29z M17.7,33h-6.6c-0.6,0-1-0.4-1-1s0.4-1,1-1h6.6
	c0.6,0,1,0.4,1,1C18.7,32.6,18.3,33,17.7,33z M23.7,37h-4.3c-0.6,0-1-0.4-1-1s0.4-1,1-1h4.3c0.6,0,1,0.4,1,1S24.3,37,23.7,37z"/>
<path class="st2" d="M32.8,7.4c-0.4-0.4,0-0.2,0.1-0.5c0.2-0.4-0.6-0.5-1-0.5c-0.1,0-0.1,0-0.2,0c-1.1-0.1,0.1-0.3,0-0.8
	s-1.3-0.4-1.6-0.4c-0.6,0.1-1.3,0.3-1.8,0.6c0.2-0.1,0.5-0.5,0.3-0.7s-1,0.1-1.3,0.1c-0.6,0.2-1.1,0.3-1.7,0.6
	c-0.4,0.2-0.7,0.6-1.1,0.9c0-0.2,0.1-0.4,0.1-0.6c-0.9-0.2-2.4,1.7-2.3,2.6c0-0.4,0-1.1-0.5-0.7c-0.2,0.4-3.1,3.5-3.1,10
	c0,1.8,0,2.4,0,3.1c0,0.2,0,0.3,0,0.4V23c0.5,0,0.9-0.4,1-0.9l0,0c0.2-1.4,0.6-2.9,1.2-4.6c0.4-1.4,1-3,2.6-3.3
	c0.4-0.1,1,0.1,1.4-0.3c-0.1-0.1-0.5-1.2-0.6-1.3c0.5,0.1,1,0.9,1.6,1c0.8,0.1,0.9-0.4,1-1c0.3,0.5,1,0.9,1.5,1
	c0.6,0.1,1.1-0.4,0.7-1c0.6,0.4,2.8,1.6,2.8,0c0-0.9-0.8-2.2-1.6-2.5c0.6,0,1.5,0.4,2.2,0.3c0.6,0,1-0.4,1.2-1
	C33.9,8.6,33.3,8,32.8,7.4z"/>
<path class="st3" d="M18.7,18c0-6.5-2.9-9.6-3.1-10c-0.5-0.4-0.5,0.3-0.5,0.7c0.1-0.9-1.4-2.8-2.3-2.6c0,0.2,0.1,0.4,0.1,0.6
	c-0.4-0.3-0.7-0.7-1.1-0.9c-0.6-0.3-1.1-0.4-1.7-0.6C9.8,5.2,9,4.9,8.8,5.1C8.6,5.3,8.9,5.7,9.1,5.8C8.6,5.5,7.9,5.3,7.3,5.2
	C7,5.2,5.8,5.1,5.7,5.6s1.1,0.7,0,0.8c-0.1,0-0.1,0-0.2,0c-0.4,0-1.2,0.1-1,0.5C4.6,7.2,5,7,4.6,7.4C4.1,8,3.5,8.6,3.7,9.5
	c0.2,0.6,0.6,1,1.2,1c0.7,0.1,1.6-0.3,2.2-0.3c-0.8,0.3-1.6,1.6-1.6,2.5c0,1.6,2.2,0.4,2.8,0c-0.4,0.6,0.1,1.1,0.7,1
	c0.5-0.1,1.2-0.5,1.5-1c0.1,0.6,0.2,1.1,1,1c0.6-0.1,1.1-0.9,1.6-1c-0.1,0.1-0.5,1.2-0.6,1.3c0.4,0.4,1,0.2,1.4,0.3
	c1.6,0.3,2.2,1.9,2.6,3.3c0.6,1.8,1,3.3,1.2,4.4c0,0.6,0.4,1,1,1v-2C18.7,20.3,18.7,19.7,18.7,18z"/>
<text transform="matrix(1 0 0 1 43.1863 36)" class="st0 st4 st5">beet-cl</text>
</svg>
